# xmcd
#
# Track frame offsets:
#	150
#	15622
#	33738
#	53842
#	72939
#	97438
#	116810
#	135936
#	140656
#	158790
#	182527
#	202458
#	222671
#
# Disc length: 3315 seconds
#
# Revision: 0
# Processed by: cddbd v1.5.2PL0 Copyright (c) Steve Scherf et al.
# Submitted via: dBpowerAMP V4.0
#
DISCID=d00cf10d
DTITLE=Zaha - Kiss the Rhythm
DYEAR=1900
DGENRE=
TTITLE0=we are good
TTITLE1=if you ever change
TTITLE2=ge up
TTITLE3=move me forward
TTITLE4=road mood
TTITLE5=do you remember
TTITLE6=its gonna be never
TTITLE7=rainy
TTITLE8=this must be a miracle
TTITLE9=wake me up
TTITLE10=almost nothing
TTITLE11=yesterday evening
TTITLE12=nothing can help like a blues
EXTD=
EXTT0=
EXTT1=
EXTT2=
EXTT3=
EXTT4=
EXTT5=
EXTT6=
EXTT7=
EXTT8=
EXTT9=
EXTT10=
EXTT11=
EXTT12=
PLAYORDER=
